PathFileType	4	(X/Y/Z)	C:/Users/opensim2020/Desktop/walking_exp_matlab/subject03_walking07_straight_01.trc	
DataRate	CameraRate	NumFrames	NumMarkers	Units	OrigDataRate	OrigDataStartFrame	OrigNumFrames	
100.00	100.00	8	46	mm	100.00	781	310	
Frame#	Time	LFHD			RFHD			LBHD			RBHD			C7			T10			CLAV			STRN			RBAK			LSHO			LUPA			LELB			LFRM			LWRA			LWRB			LFIN			RSHO			RUPA			RELB			RFRM			RWRA			RWRB			RFIN			LASI			RASI			LPSI			RPSI			LTHI			LKNE			LTIB			LANK			LHEE			LTOE			RTHI			RKNE			RTIB			RANK			RHEE			RTOE			*39			*40			*41			*42			*43			*44			*45			
		X1	Y1	Z1	X2	Y2	Z2	X3	Y3	Z3	X4	Y4	Z4	X5	Y5	Z5	X6	Y6	Z6	X7	Y7	Z7	X8	Y8	Z8	X9	Y9	Z9	X10	Y10	Z10	X11	Y11	Z11	X12	Y12	Z12	X13	Y13	Z13	X14	Y14	Z14	X15	Y15	Z15	X16	Y16	Z16	X17	Y17	Z17	X18	Y18	Z18	X19	Y19	Z19	X20	Y20	Z20	X21	Y21	Z21	X22	Y22	Z22	X23	Y23	Z23	X24	Y24	Z24	X25	Y25	Z25	X26	Y26	Z26	X27	Y27	Z27	X28	Y28	Z28	X29	Y29	Z29	X30	Y30	Z30	X31	Y31	Z31	X32	Y32	Z32	X33	Y33	Z33	X34	Y34	Z34	X35	Y35	Z35	X36	Y36	Z36	X37	Y37	Z37	X38	Y38	Z38	X39	Y39	Z39	X40	Y40	Z40	X41	Y41	Z41	X42	Y42	Z42	X43	Y43	Z43	X44	Y44	Z44	X45	Y45	Z45	X46	Y46	Z46	

117	1.160	1388.38892	-449.69925	1624.87646	1522.15894	-450.62427	1625.97534	1391.95325	-571.45502	1565.84814	1523.13708	-567.86865	1567.47498	1453.98364	-588.87714	1414.16565	1454.60889	-633.79303	1105.26917	1445.47620	-468.99081	1334.96643	1439.36670	-431.98828	1167.46545	1556.51367	-636.75006	1243.65198	1292.20313	-525.57782	1373.09741	1225.51331	-566.87946	1177.18103	1211.96765	-576.85089	1054.50537	1208.19202	-560.10840	925.21381	1235.13269	-542.23871	806.38599	1189.95300	-574.97412	812.98438	1196.86755	-561.34753	729.45972	1607.23096	-499.33774	1360.95032	1687.20276	-462.41809	1146.58264	1701.59436	-423.59448	1041.26965	1703.21338	-375.41443	912.95258	1664.06799	-328.90607	826.19037	1711.83276	-351.51971	815.72980	1700.32568	-312.34164	753.18872	1335.04211	-476.66898	935.37170	1570.49170	-475.19727	935.06195	1382.45520	-639.15662	957.42316	1531.86230	-635.04724	972.98956	1282.43701	-463.56952	638.96222	1321.94434	-397.21466	475.67224	1318.02515	-402.48825	282.43243	1351.92371	-366.63608	74.04284	1392.19214	-400.10696	35.69054	1367.83655	-217.06241	55.69620	1610.13708	-569.57092	647.33295	1574.84436	-588.59351	468.14508	1580.34998	-666.81506	292.48236	1531.65833	-729.86548	83.58094	1482.50232	-778.78253	56.12375	1510.94751	-591.81256	36.41338	1442.94080	-540.09656	1676.50134																		 
118	1.170	1387.65088	-440.63965	1623.64185	1521.46582	-441.48901	1624.89600	1391.39563	-562.35364	1564.46582	1522.55591	-558.67841	1566.24402	1453.54102	-579.64655	1413.03186	1453.61011	-624.66724	1104.05286	1444.83228	-459.84802	1333.62683	1438.99133	-422.82346	1166.27075	1555.86816	-627.54102	1242.43237	1291.67859	-516.48187	1371.94556	1225.39355	-558.79279	1176.11304	1212.09241	-569.63806	1053.42126	1208.25293	-553.47668	923.98242	1235.02673	-535.89087	805.20099	1190.22144	-569.21771	811.85718	1196.98145	-555.73102	728.36462	1606.68066	-489.99649	1359.73962	1686.79187	-452.42307	1145.65173	1701.18042	-412.94583	1040.62476	1702.22131	-363.27008	912.89746	1662.53638	-315.92911	826.84662	1710.32056	-338.20279	815.93048	1698.42261	-298.19064	753.99756	1334.70911	-466.88776	933.85889	1570.86047	-466.88986	933.82135	1381.52954	-629.50476	955.94958	1530.86780	-626.19867	971.71082	1281.67273	-457.35669	636.24335	1322.96851	-389.96576	473.71503	1317.99292	-388.24063	281.57700	1349.94336	-344.03662	74.55640	1390.89014	-375.30496	34.96293	1366.04089	-192.93353	59.50174	1610.27893	-562.68213	646.82184	1575.14111	-583.01770	467.74167	1580.51868	-663.48657	292.87048	1531.98682	-729.17474	84.62432	1482.81738	-778.35291	57.81099	1511.26050	-591.58856	36.33461	1439.96228	-529.20056	1673.51318																		 
119	1.180	1386.87244	-431.61111	1622.44861	1520.68787	-432.33591	1623.77954	1390.74072	-553.15460	1563.16211	1521.85291	-549.43243	1565.06140	1452.97546	-570.22565	1411.80737	1452.50684	-615.19446	1102.83435	1444.36108	-450.50385	1332.45264	1438.35254	-413.68008	1165.01074	1555.28088	-618.49438	1241.35974	1291.13525	-507.24454	1370.79150	1225.20837	-550.46838	1174.99316	1211.95935	-562.19366	1052.24500	1208.22437	-546.38177	922.86499	1235.05847	-529.36847	803.90613	1190.53955	-563.03430	810.71362	1197.13892	-549.95758	727.28369	1606.08911	-480.67825	1358.46912	1686.29810	-442.45795	1144.75684	1700.72607	-402.44427	1039.92896	1701.20459	-351.37146	912.77081	1660.77039	-302.99512	827.82574	1708.76953	-325.15112	816.05328	1696.75867	-284.21863	754.87671	1334.28674	-456.98593	932.39502	1570.63501	-458.08630	932.76672	1380.47461	-619.66150	954.48450	1529.90356	-617.32831	970.55408	1280.20129	-450.88782	633.70923	1323.75586	-382.52655	471.67798	1318.07605	-374.85095	280.82104	1348.52368	-322.94186	75.11644	1389.49500	-352.66583	34.79200	1363.99414	-170.39154	64.05196	1610.19641	-555.53162	646.22668	1575.42896	-577.16687	467.26102	1580.82263	-659.99518	293.30573	1532.36609	-728.43030	85.77233	1483.14795	-777.97449	59.54053	1511.30286	-591.47815	36.20925	1439.33228	-520.24365	1672.25854																		 
120	1.190	1386.08850	-422.40384	1621.26282	1519.86255	-423.19177	1622.75000	1389.99451	-543.93481	1561.83118	1521.19690	-540.18256	1563.85754	1452.31238	-560.93677	1410.59021	1451.48206	-605.75079	1101.57056	1443.79224	-441.03876	1331.29175	1437.88184	-404.19727	1163.71143	1554.48108	-609.19287	1240.12500	1290.46057	-497.76498	1369.67920	1224.95093	-541.70001	1173.85132	1212.02856	-553.83618	1051.16455	1208.10962	-538.73376	921.67883	1235.03174	-522.75403	802.59143	1190.71326	-556.48663	809.58264	1197.29773	-543.86493	726.09546	1605.42651	-471.36072	1357.25635	1685.69006	-432.55991	1143.82678	1700.02417	-392.12219	1039.17480	1700.04724	-339.75769	912.54852	1659.41296	-290.63565	828.01288	1707.13367	-312.52655	816.10870	1694.74133	-270.81107	755.56934	1333.91870	-446.97742	931.04083	1570.26001	-449.17902	931.75537	1379.37671	-609.91357	953.24402	1528.73145	-608.20648	969.25732	1279.66772	-443.97650	631.47241	1324.48645	-375.28329	469.67517	1318.03052	-362.32785	280.16953	1347.38782	-303.98630	76.05344	1388.11633	-332.10687	34.84764	1362.45642	-150.41481	68.69201	1610.07556	-548.24945	645.68921	1575.68579	-571.12891	466.79373	1580.97266	-656.31476	293.72446	1532.75989	-727.69598	87.00243	1483.50427	-777.53235	61.44534	1511.43225	-591.30530	36.06369	1438.37732	-510.95218	1671.08276																		 
121	1.200	1385.26160	-413.19763	1620.10889	1519.04871	-413.87003	1621.70361	1389.28992	-534.64386	1560.56982	1520.40955	-530.84528	1562.69324	1451.57703	-551.38794	1409.45325	1450.60498	-596.37402	1100.45923	1443.08923	-431.65454	1330.08557	1437.30981	-394.70377	1162.59229	1553.65442	-600.01837	1239.02368	1289.69763	-488.11041	1368.55042	1224.58228	-532.68866	1172.80957	1211.95813	-545.30273	1050.15210	1208.12830	-531.27344	920.46295	1235.19446	-516.00281	801.18506	1190.72632	-549.62421	808.52161	1197.50806	-537.59949	724.85516	1604.73340	-462.00604	1356.06787	1684.92114	-422.76804	1142.91711	1699.27502	-381.95230	1038.40002	1698.93384	-328.38895	912.30872	1658.17749	-278.10403	828.86072	1705.58459	-300.20697	816.09247	1692.77124	-257.75897	756.06708	1333.51147	-436.91080	929.72601	1569.79248	-440.04617	930.53418	1378.19507	-600.08606	952.25873	1527.51721	-598.95361	968.08917	1279.45752	-436.17902	629.56024	1325.22913	-367.76700	467.69736	1318.17444	-350.71854	279.57144	1346.33154	-286.96063	76.74580	1387.17261	-313.60086	34.55057	1360.55347	-132.61252	72.79794	1609.96375	-540.74988	645.09540	1575.83167	-564.75635	466.26334	1581.14526	-652.39740	294.19821	1533.15710	-726.82880	88.40443	1483.92163	-777.01556	63.56002	1511.60010	-591.04395	35.99293	1438.52588	-502.13739	1670.35364																		 
122	1.210	1384.37085	-403.89359	1619.05591	1518.20776	-404.62286	1620.76489	1388.45605	-525.23212	1559.33728	1519.60547	-521.47845	1561.57983	1450.73169	-541.89923	1408.26501	1449.66174	-586.54456	1099.28796	1442.45801	-421.92978	1328.97632	1436.91443	-384.89752	1161.64941	1552.65833	-590.53857	1237.83289	1288.95605	-478.31131	1367.48608	1224.11731	-523.14404	1171.69934	1211.60168	-536.40466	1049.05493	1207.94385	-523.18408	919.28119	1234.77271	-508.18930	800.04260	1190.74072	-542.42706	807.40729	1197.65063	-531.11438	723.62579	1604.00330	-452.66492	1354.94922	1684.07654	-413.01242	1141.99609	1698.44299	-371.92987	1037.61768	1697.72473	-317.32999	912.01025	1656.47144	-266.23047	828.96600	1703.96228	-288.23105	816.06281	1691.12427	-245.02997	756.73865	1333.07446	-426.84866	928.53070	1569.49536	-431.17593	929.56433	1376.84839	-589.88251	951.23193	1526.32324	-589.65643	966.99756	1279.40039	-427.36206	628.12067	1325.69470	-359.84073	466.07526	1318.16846	-339.91135	278.96075	1345.52832	-272.43570	77.04113	1386.33923	-298.33511	34.01978	1359.21228	-117.75571	76.14703	1609.71448	-533.07117	644.45740	1575.89783	-558.09979	465.72675	1581.16418	-648.14789	294.69351	1533.49365	-725.75647	90.04033	1484.33533	-776.39783	65.86606	1511.72656	-590.81219	35.90107	1436.96252	-492.71078	1669.00037																		 
123	1.220	1383.52759	-394.53253	1618.08960	1517.29895	-395.32019	1619.91541	1387.62292	-515.88593	1558.19409	1518.75830	-512.08948	1560.55798	1449.79761	-532.28375	1407.18604	1448.65344	-576.66083	1098.19348	1441.70300	-412.20502	1328.06104	1436.24561	-375.04117	1160.57825	1551.56360	-581.10309	1236.80444	1288.06335	-468.25461	1366.46375	1223.55225	-513.50446	1170.60901	1211.32031	-526.95667	1047.80103	1207.76782	-514.71295	918.03333	1234.81238	-500.68698	798.72589	1190.70496	-534.70850	806.24982	1197.82703	-524.30298	722.33655	1603.22656	-443.29965	1353.90979	1683.15015	-403.46994	1141.11816	1697.41663	-362.11981	1036.81042	1696.44556	-306.55341	911.66486	1655.14063	-254.52257	829.53052	1702.29346	-276.66367	815.92950	1689.33569	-232.83728	757.16016	1332.70947	-416.45105	927.59937	1569.00110	-421.79584	928.48425	1375.49939	-579.75348	950.31305	1524.97571	-580.15942	965.82941	1280.08643	-417.88290	627.11871	1326.02930	-350.90485	465.11453	1317.85071	-329.58646	278.33044	1345.15063	-260.65952	76.64969	1385.70996	-286.04303	32.95478	1358.60376	-106.04845	77.95231	1609.23254	-525.10809	643.85522	1575.79724	-551.21161	465.20450	1581.07886	-643.64636	295.25635	1533.80225	-724.60162	91.76629	1484.65967	-775.73944	68.50046	1511.81140	-590.54523	35.81591																					 
124	1.230	1382.61035	-385.13785	1617.27905	1516.38196	-385.95978	1619.19678	1386.71191	-506.30606	1557.13391	1517.87708	-502.61938	1559.62085	1448.76135	-522.61829	1406.23682	1447.70959	-566.77692	1097.26489	1440.96606	-402.41309	1327.18152	1435.78760	-365.07571	1159.85266	1550.38379	-571.57806	1235.81970	1287.19153	-458.21478	1365.45142	1222.87561	-503.47586	1169.49329	1210.86182	-517.25323	1046.76196	1207.46228	-505.77222	916.82343	1236.02917	-494.37714	796.69250	1190.45215	-526.66309	805.16345	1197.97852	-517.12482	721.05609	1602.34094	-433.92914	1353.01672	1682.14807	-393.93137	1140.26379	1696.44812	-352.53738	1036.05273	1695.24084	-296.10867	911.33057	1653.78809	-243.21130	829.84241	1700.70825	-265.51675	815.74896	1687.51611	-221.04417	757.55945	1332.28650	-405.93356	926.85309	1568.62671	-412.34979	927.45551	1374.22095	-569.56305	949.64056	1523.73987	-570.52631	964.76971	1280.09607	-407.16989	626.44214	1325.95593	-340.85233	464.48083	1317.51318	-319.86951	277.56891	1345.32629	-251.74022	75.67705	1385.63477	-276.88599	31.46549	1358.30591	-97.14452	77.44708	1608.96814	-516.94946	643.34375	1575.62659	-543.99036	464.69852	1581.05640	-639.01575	295.99399	1534.04492	-723.45569	93.78836	1484.92993	-774.91541	71.42527	1511.93140	-590.34155	35.73834	1435.14465	-474.08051	1667.19348																		 
